<svg width="580" height="92" viewBox="0 0 580 92" fill="none" xmlns="http://www.w3.org/2000/svg">
<line x1="39.5011" y1="26.2935" x2="89.5011" y2="26.2935" stroke="white" stroke-width="2"/>
<path d="M152.477 14.0175H142.173L134.557 49.7935H120.733L128.349 14.0175H118.173L119.325 9.15348H153.565L152.477 14.0175ZM174.18 8.51348C177.849 8.51348 180.815 8.98282 183.076 9.92149C185.38 10.8602 187.193 12.3108 188.516 14.2735C189.369 15.5962 190.031 17.0895 190.5 18.7535C190.969 20.4175 191.204 22.3375 191.204 24.5135C191.204 26.3908 191.033 28.2682 190.692 30.1455C190.351 32.0228 189.86 33.8362 189.22 35.5855C188.623 37.2922 187.876 38.9135 186.98 40.4495C186.127 41.9428 185.167 43.2655 184.1 44.4175C182.095 46.5935 179.769 48.1295 177.124 49.0255C174.521 49.8788 171.3 50.3055 167.46 50.3055C163.748 50.3055 160.761 49.9215 158.5 49.1535C156.239 48.3855 154.447 47.1482 153.124 45.4415C152.185 44.2468 151.439 42.7322 150.884 40.8975C150.372 39.0628 150.116 36.7588 150.116 33.9855C150.116 29.2495 150.948 25.0255 152.612 21.3135C154.319 17.5588 156.729 14.5935 159.844 12.4175C161.721 11.0948 163.812 10.1135 166.116 9.47348C168.42 8.83348 171.108 8.51348 174.18 8.51348ZM166.948 45.8255C167.929 45.8255 168.847 45.3988 169.7 44.5455C170.596 43.6495 171.407 42.4762 172.132 41.0255C172.9 39.5322 173.583 37.8468 174.18 35.9695C174.82 34.0922 175.353 32.1508 175.78 30.1455C176.207 28.1402 176.527 26.1562 176.74 24.1935C176.996 22.1882 177.124 20.3748 177.124 18.7535C177.124 16.5348 176.889 15.0202 176.42 14.2095C175.993 13.3562 175.353 12.9295 174.5 12.9295C173.519 12.9295 172.58 13.3562 171.684 14.2095C170.788 15.0628 169.935 16.2148 169.124 17.6655C168.356 19.0735 167.652 20.7162 167.012 22.5935C166.415 24.4282 165.881 26.3268 165.412 28.2895C164.985 30.2522 164.644 32.1935 164.388 34.1135C164.175 36.0335 164.068 37.8042 164.068 39.4255C164.068 41.8575 164.324 43.5428 164.836 44.4815C165.391 45.3775 166.095 45.8255 166.948 45.8255ZM194.889 33.4095H215.049L213.769 39.2335H193.545L194.889 33.4095ZM218.251 49.7935L226.891 9.15348H244.107C246.752 9.15348 249.056 9.43082 251.019 9.98549C253.024 10.4975 254.667 11.3722 255.947 12.6095C257.27 13.8468 258.251 15.4682 258.891 17.4735C259.574 19.4788 259.915 21.9322 259.915 24.8335C259.915 27.9482 259.51 30.9988 258.699 33.9855C257.931 36.9722 256.63 39.6388 254.795 41.9855C252.96 44.3322 250.55 46.2308 247.563 47.6815C244.619 49.0895 240.971 49.7935 236.619 49.7935H218.251ZM235.787 45.3135C237.195 45.3135 238.432 44.7375 239.499 43.5855C240.608 42.3908 241.547 40.8975 242.315 39.1055C243.126 37.2708 243.787 35.2655 244.299 33.0895C244.854 30.8708 245.28 28.7375 245.579 26.6895C245.92 24.6415 246.155 22.8068 246.283 21.1855C246.454 19.5642 246.539 18.4122 246.539 17.7295C246.539 16.4068 246.262 15.3828 245.707 14.6575C245.195 13.8895 244.278 13.5055 242.955 13.5055H239.883L233.035 45.3135H235.787ZM286.93 8.51348C290.599 8.51348 293.565 8.98282 295.826 9.92149C298.13 10.8602 299.943 12.3108 301.266 14.2735C302.119 15.5962 302.781 17.0895 303.25 18.7535C303.719 20.4175 303.954 22.3375 303.954 24.5135C303.954 26.3908 303.783 28.2682 303.442 30.1455C303.101 32.0228 302.61 33.8362 301.97 35.5855C301.373 37.2922 300.626 38.9135 299.73 40.4495C298.877 41.9428 297.917 43.2655 296.85 44.4175C294.845 46.5935 292.519 48.1295 289.874 49.0255C287.271 49.8788 284.05 50.3055 280.21 50.3055C276.498 50.3055 273.511 49.9215 271.25 49.1535C268.989 48.3855 267.197 47.1482 265.874 45.4415C264.935 44.2468 264.189 42.7322 263.634 40.8975C263.122 39.0628 262.866 36.7588 262.866 33.9855C262.866 29.2495 263.698 25.0255 265.362 21.3135C267.069 17.5588 269.479 14.5935 272.594 12.4175C274.471 11.0948 276.562 10.1135 278.866 9.47348C281.17 8.83348 283.858 8.51348 286.93 8.51348ZM279.698 45.8255C280.679 45.8255 281.597 45.3988 282.45 44.5455C283.346 43.6495 284.157 42.4762 284.882 41.0255C285.65 39.5322 286.333 37.8468 286.93 35.9695C287.57 34.0922 288.103 32.1508 288.53 30.1455C288.957 28.1402 289.277 26.1562 289.49 24.1935C289.746 22.1882 289.874 20.3748 289.874 18.7535C289.874 16.5348 289.639 15.0202 289.17 14.2095C288.743 13.3562 288.103 12.9295 287.25 12.9295C286.269 12.9295 285.33 13.3562 284.434 14.2095C283.538 15.0628 282.685 16.2148 281.874 17.6655C281.106 19.0735 280.402 20.7162 279.762 22.5935C279.165 24.4282 278.631 26.3268 278.162 28.2895C277.735 30.2522 277.394 32.1935 277.138 34.1135C276.925 36.0335 276.818 37.8042 276.818 39.4255C276.818 41.8575 277.074 43.5428 277.586 44.4815C278.141 45.3775 278.845 45.8255 279.698 45.8255ZM350.801 49.7935H335.825L328.721 20.4175L322.449 49.7935H316.689L325.329 9.15348H340.625L347.345 38.9135L353.681 9.15348H359.569L350.801 49.7935ZM384.18 8.51348C387.849 8.51348 390.815 8.98282 393.076 9.92149C395.38 10.8602 397.193 12.3108 398.516 14.2735C399.369 15.5962 400.031 17.0895 400.5 18.7535C400.969 20.4175 401.204 22.3375 401.204 24.5135C401.204 26.3908 401.033 28.2682 400.692 30.1455C400.351 32.0228 399.86 33.8362 399.22 35.5855C398.623 37.2922 397.876 38.9135 396.98 40.4495C396.127 41.9428 395.167 43.2655 394.1 44.4175C392.095 46.5935 389.769 48.1295 387.124 49.0255C384.521 49.8788 381.3 50.3055 377.46 50.3055C373.748 50.3055 370.761 49.9215 368.5 49.1535C366.239 48.3855 364.447 47.1482 363.124 45.4415C362.185 44.2468 361.439 42.7322 360.884 40.8975C360.372 39.0628 360.116 36.7588 360.116 33.9855C360.116 29.2495 360.948 25.0255 362.612 21.3135C364.319 17.5588 366.729 14.5935 369.844 12.4175C371.721 11.0948 373.812 10.1135 376.116 9.47348C378.42 8.83348 381.108 8.51348 384.18 8.51348ZM376.948 45.8255C377.929 45.8255 378.847 45.3988 379.7 44.5455C380.596 43.6495 381.407 42.4762 382.132 41.0255C382.9 39.5322 383.583 37.8468 384.18 35.9695C384.82 34.0922 385.353 32.1508 385.78 30.1455C386.207 28.1402 386.527 26.1562 386.74 24.1935C386.996 22.1882 387.124 20.3748 387.124 18.7535C387.124 16.5348 386.889 15.0202 386.42 14.2095C385.993 13.3562 385.353 12.9295 384.5 12.9295C383.519 12.9295 382.58 13.3562 381.684 14.2095C380.788 15.0628 379.935 16.2148 379.124 17.6655C378.356 19.0735 377.652 20.7162 377.012 22.5935C376.415 24.4282 375.881 26.3268 375.412 28.2895C374.985 30.2522 374.644 32.1935 374.388 34.1135C374.175 36.0335 374.068 37.8042 374.068 39.4255C374.068 41.8575 374.324 43.5428 374.836 44.4815C375.391 45.3775 376.095 45.8255 376.948 45.8255ZM405.306 9.15348H420.922L422.01 36.8655L432.698 9.15348H445.37L447.034 36.8655L457.786 9.15348H464.506L448.698 49.7935H434.298L432.954 26.8175L423.354 49.7935H407.994L405.306 9.15348Z" fill="white"/>
<line x1="485.501" y1="26.2935" x2="535.501" y2="26.2935" stroke="white" stroke-width="2"/>
<line y1="78.2174" x2="240" y2="78.2174" stroke="white" stroke-width="2"/>
<path d="M288 83.2174H284V79.2174L296 67.2174L300 71.2174L288 83.2174Z" stroke="white" stroke-width="2" stroke-linecap="round" stroke-linejoin="round"/>
<path d="M293 70.2174L297 74.2174" stroke="white" stroke-width="2" stroke-linecap="round" stroke-linejoin="round"/>
<path d="M299 78.2174V89.2174C299 89.4826 298.895 89.737 298.707 89.9245C298.52 90.1121 298.265 90.2174 298 90.2174H278C277.735 90.2174 277.48 90.1121 277.293 89.9245C277.105 89.737 277 89.4826 277 89.2174V69.2174C277 68.9522 277.105 68.6978 277.293 68.5103C277.48 68.3228 277.735 68.2174 278 68.2174H289" stroke="white" stroke-width="2" stroke-linecap="round" stroke-linejoin="round"/>
<line x1="336" y1="78.2174" x2="576" y2="78.2174" stroke="white" stroke-width="2"/>
</svg>
